<?xml version="1.0" encoding="UTF-8" standalone="no"?><!DOCTYPE svg PUBLIC "-//W3C//DTD SVG 1.1//EN" "http://www.w3.org/Graphics/SVG/1.1/DTD/svg11.dtd"><svg width="100%" height="100%" viewBox="0 0 2292 2292" version="1.1" xmlns="http://www.w3.org/2000/svg" xmlns:xlink="http://www.w3.org/1999/xlink" xml:space="preserve" xmlns:serif="http://www.serif.com/" style="fill-rule:evenodd;clip-rule:evenodd;stroke-linejoin:round;stroke-miterlimit:2;"><g><rect x="0" y="0" width="2291.67" height="2291.67" style="fill:#555;"/><path d="M-23.133,1820.44c172.972,-13.046 365.81,-60.946 491.075,59.179c138.645,132.962 179.066,348.308 126.645,533.217c-49.724,175.412 -203.984,304.212 -378.667,355.812c-147.053,43.442 -280.225,-57.796 -420.506,-119.742c-150.987,-66.67 -352.251,-86.437 -402.668,-243.745c-52.571,-164.046 56.133,-336.046 177.821,-457.859c105.546,-105.658 257.463,-115.637 406.3,-126.862Z" style="fill:#deebf8;fill-opacity:0.9;"/><path d="M1897.54,339.145c-117.867,-127.267 -275.38,-248.388 -259.317,-421.2c17.775,-191.274 161.171,-356.941 338.525,-430.999c168.242,-70.254 365.066,-29.679 514.179,74.933c125.521,88.062 129.171,255.306 167.996,403.658c41.787,159.675 151.583,329.507 59.833,466.876c-95.679,143.25 -297.958,165.22 -469.041,145.787c-148.388,-16.854 -250.751,-129.546 -352.176,-239.055Z" style="fill:#fffad1;fill-opacity:0.9;"/></g></svg>